<svg version="1" xmlns="http://www.w3.org/2000/svg" width="346.667" height="346.667" viewBox="0 0 260.000000 260.000000"><path d="M121 59.4c-8.2 1.8-12.9 4.4-19.1 10.6-7.3 7.2-10.2 14.4-10.3 25.5-.2 14.2 5.5 21.5 16.6 21.5 3 0 5.7-.2 6-.5.3-.3-.6-3.6-1.9-7.3-2.1-5.7-2.4-8-2.1-15.7.6-12.5 4.4-19.3 13.6-23.9 4.3-2.2 14.7-3.1 19.7-1.7 6.7 1.8 7 2.3 4 6.6-3.7 5.6-4.7 9.5-14.5 61.9-5 26.2-9.7 49.1-10.6 50.9-.9 1.8-2.7 4.4-4.1 5.8-2.2 2.4-2.2 2.7-.8 3.9.9.8 4.2 1.6 7.3 1.8 4.7.3 6.3 0 9.1-2 1.9-1.3 4.3-3.7 5.2-5.3 1.1-1.8 6.4-26.6 13.3-62 6.4-32.5 11.8-59.9 12-61 .4-1.7-.7-2.5-8.2-5.2-14.8-5.5-23.6-6.5-35.2-3.9z"/></svg>